<?xml version="1.0" encoding="UTF-8"?>
<!DOCTYPE svg PUBLIC "-//W3C//DTD SVG 1.1//EN" "http://www.w3.org/Graphics/SVG/1.1/DTD/svg11.dtd">
<!-- Creator: CorelDRAW 2020 (64-Bit) -->
<svg xmlns="http://www.w3.org/2000/svg" xml:space="preserve" width="13px" height="16px" version="1.1" style="shape-rendering:geometricPrecision; text-rendering:geometricPrecision; image-rendering:optimizeQuality; fill-rule:evenodd; clip-rule:evenodd"
viewBox="0 0 13 15.931"
 xmlns:xlink="http://www.w3.org/1999/xlink"
 xmlns:xodm="http://www.corel.com/coreldraw/odm/2003">
 <defs>
  <style type="text/css">
   <![CDATA[
    .fil0 {fill:#646464}
   ]]>
  </style>
 </defs>
 <g id="Layer_x0020_1">
  <metadata id="CorelCorpID_0Corel-Layer"/>
  <g id="_2069892031968">
   <path class="fil0" d="M7.013 13.972c-0.102,0.466 -1.049,0.679 -1.042,-0.323l0 -4.28c0,-0.627 -0.056,-1.571 0.004,-2.159 0.043,-0.421 1.061,-0.785 1.055,0.327 -0.003,0.713 0,1.427 0,2.14 0,0.826 0.114,3.7 -0.017,4.295zm-4.726 -7.251c-0.046,-0.798 1.003,-0.51 1.106,0.306 0.088,0.697 0.14,1.422 0.215,2.124 0.139,1.311 0.396,2.988 0.437,4.265 0.021,0.655 -0.976,0.647 -1.085,-0.33 -0.078,-0.705 -0.145,-1.414 -0.219,-2.119 -0.143,-1.359 -0.376,-2.906 -0.454,-4.246zm8.428 0c-0.101,1.398 -0.294,2.84 -0.437,4.241 -0.072,0.703 -0.135,1.419 -0.219,2.119 -0.118,0.992 -1.117,0.993 -1.083,0.313 0.067,-1.347 0.3,-2.882 0.435,-4.248 0.069,-0.697 0.126,-1.431 0.216,-2.123 0.095,-0.734 1.15,-1.161 1.088,-0.302zm-1.324 -6.177l0.236 1.11c0.671,0.304 1.241,0.246 1.939,0.819 0.765,0.628 0.271,1.212 -0.403,1.585 -2.1,1.163 -7.135,1.168 -9.311,0.009 -0.693,-0.37 -1.178,-0.935 -0.429,-1.585 0.662,-0.575 1.288,-0.532 1.952,-0.828l0.214 -1.11c-1.565,0.367 -3.527,0.84 -3.586,2.778 -0.05,1.638 0.603,1.362 0.73,2.46 0.11,0.948 0.183,1.941 0.28,2.897 0.101,0.989 0.372,5.008 0.732,5.622 1.276,2.173 8.208,2.169 9.498,0.008 0.369,-0.619 0.634,-4.64 0.738,-5.638 0.1,-0.957 0.171,-1.946 0.281,-2.896 0.126,-1.095 0.785,-0.829 0.735,-2.451 -0.059,-1.929 -2.045,-2.433 -3.606,-2.78z"/>
   <path class="fil0" d="M5.422 0.027c-0.594,0.079 -1.098,0.51 -1.264,1.086 -0.098,0.339 -0.06,0.772 -0.061,1.129 -0.002,0.412 -0.015,0.665 0.487,0.706 1.209,0.1 0.463,-1.163 0.755,-1.603 0.151,-0.228 0.78,-0.14 1.052,-0.14 0.24,0 0.987,-0.045 1.153,0.039 0.54,0.275 -0.343,1.603 0.66,1.703 0.367,0.036 0.704,-0.061 0.705,-0.481 0,-0.325 0.027,-0.869 -0.028,-1.17 -0.108,-0.59 -0.543,-1.081 -1.127,-1.233 -0.28,-0.073 -2.012,-0.078 -2.332,-0.036z"/>
  </g>
 </g>
</svg>
